{"title":"Coldplay - Midnight [Music Video] 720p [Sbyky]","uid":9723505,"size":55099504,"categoryP":"video","categoryS":"music_videos","magnet":"?xt=urn:btih:80712bc3e3cbf6c48e16fb35912a5afd64ee9cf4&amp;dn=Coldplay+-+Midnight+%5BMusic+Video%5D+720p+%5BSbyky%5D&amp;tr=udp%3A%2F%2Ftracker.openbittorrent.com%3A80&amp;tr=udp%3A%2F%2Fopen.demonii.com%3A1337&amp;tr=udp%3A%2F%2Ftracker.coppersurfer.tk%3A6969&amp;tr=udp%3A%2F%2Fexodus.desync.com%3A6969","seeders":2,"leechers":0,"uploader":"Sbyky","files":1,"time":1394266660,"description":"\n\nGeneral\nComplete name                            : Coldplay - Midnight [Music Video] 720p [Sbyky].MP4\nFormat                                   : MPEG-4\nFormat profile                           : Base Media\nCodec ID                                 : isom\nFile size                                : 52.5 MiB\nDuration                                 : 5mn 7s\nOverall bit rate mode                    : Variable\nOverall bit rate                         : 1 433 Kbps\nEncoded date                             : UTC 2014-02-28 08:27:56\nTagged date                              : UTC 2014-02-28 08:27:56\n\nVideo\nID                                       : 1\nFormat                                   : AVC\nFormat/Info                              : Advanced Video Codec\nFormat profile                           : &lt;a class=&quot;__cf_email__&quot; href=&quot;/cdn-cgi/l/email-protection&quot; data-cfemail=&quot;d79ab6beb9979be4f9e6&quot;&gt;[email&amp;#160;protected]&lt;/a&gt;&lt;script cf-hash='f9e31' type=&quot;text/javascript&quot;&gt;\n/* &lt;![CDATA[ */!function(){try{var t=&quot;currentScript&quot;in document?document.currentScript:function(){for(var t=document.getElementsByTagName(&quot;script&quot;),e=t.length;e--;)if(t[e].getAttribute(&quot;cf-hash&quot;))return t[e]}();if(t&amp;&amp;t.previousSibling){var e,r,n,i,c=t.previousSibling,a=c.getAttribute(&quot;data-cfemail&quot;);if(a){for(e=&quot;&quot;,r=parseInt(a.substr(0,2),16),n=2;a.length-n;n+=2)i=parseInt(a.substr(n,2),16)^r,e+=String.fromCharCode(i);e=document.createTextNode(e),c.parentNode.replaceChild(e,c)}}}catch(u){}}();/* ]]&gt; */&lt;/script&gt;\nFormat settings, CABAC                   : Yes\nFormat settings, ReFrames                : 3 frames\nCodec ID                                 : avc1\nCodec ID/Info                            : Advanced Video Coding\nDuration                                 : 5mn 7s\nDuration_LastFrame                       : -33ms\nBit rate                                 : 1 303 Kbps\nWidth                                    : 1 280 pixels\nHeight                                   : 720 pixels\nDisplay aspect ratio                     : 16:9\nFrame rate mode                          : Constant\nFrame rate                               : 29.970 fps\nColor space                              : YUV\nChroma subsampling                       : 4:2:0\nBit depth                                : 8 bits\nScan type                                : Progressive\nBits/(Pixel*Frame)                       : 0.047\nStream size                              : 47.8 MiB (91%)\nEncoded date                             : UTC 2014-02-28 08:27:56\nTagged date                              : UTC 2014-02-28 08:27:56\n\nAudio\nID                                       : 2\nFormat                                   : AAC\nFormat/Info                              : Advanced Audio Codec\nFormat profile                           : LC\nCodec ID                                 : 40\nDuration                                 : 5mn 7s\nBit rate mode                            : Variable\nBit rate                                 : 126 Kbps\nChannel(s)                               : 2 channels\nChannel positions                        : Front: L R\nSampling rate                            : 44.1 KHz\nCompression mode                         : Lossy\nStream size                              : 4.61 MiB (9%)\nEncoded date                             : UTC 2014-02-28 08:26:43\nTagged date                              : UTC 2014-02-28 08:26:43\n\nShared By Sbyky\n","torrent":{"xt":"urn:btih:80712bc3e3cbf6c48e16fb35912a5afd64ee9cf4","amp;dn":"Coldplay+-+Midnight+%5BMusic+Video%5D+720p+%5BSbyky%5D","amp;tr":["udp%3A%2F%2Ftracker.openbittorrent.com%3A80","udp%3A%2F%2Fopen.demonii.com%3A1337","udp%3A%2F%2Ftracker.coppersurfer.tk%3A6969","udp%3A%2F%2Fexodus.desync.com%3A6969"],"infoHash":"80712bc3e3cbf6c48e16fb35912a5afd64ee9cf4","infoHashBuffer":{"type":"Buffer","data":[128,113,43,195,227,203,246,196,142,22,251,53,145,42,90,253,100,238,156,244]},"announce":[],"urlList":[]}}